<?xml version="1.0" standalone="no"?>
<!DOCTYPE svg PUBLIC "-//W3C//DTD SVG 20010904//EN"
 "http://www.w3.org/TR/2001/REC-SVG-20010904/DTD/svg10.dtd">
<svg version="1.0" xmlns="http://www.w3.org/2000/svg"
 width="1920.000000pt" height="1080.000000pt" viewBox="0 0 1920.000000 1080.000000"
 preserveAspectRatio="xMidYMid meet">
<metadata>
Created by potrace 1.15, written by Peter Selinger 2001-2017
</metadata>
<g transform="translate(0.000000,1080.000000) scale(0.100000,-0.100000)"
fill="#000000" stroke="none">
<path d="M0 5400 l0 -5400 9600 0 9600 0 0 5400 0 5400 -9600 0 -9600 0 0
-5400z m9580 4670 c36 -5 155 -20 265 -35 168 -22 344 -53 525 -95 104 -23
404 -122 530 -174 366 -152 717 -366 1055 -647 138 -114 421 -399 542 -545
328 -396 562 -821 728 -1319 97 -289 138 -482 200 -940 22 -162 30 -438 16
-550 -58 -466 -98 -682 -177 -950 -91 -309 -235 -636 -403 -913 -50 -84 -60
-106 -51 -121 5 -11 10 -35 10 -55 0 -52 8 -65 61 -91 41 -21 63 -25 151 -26
217 -2 224 0 194 47 -16 23 -16 25 9 36 20 9 34 9 59 0 45 -16 61 -15 107 9
40 20 42 20 96 3 52 -16 57 -16 104 0 46 17 51 17 96 0 67 -24 72 -30 79 -85
7 -55 24 -74 55 -66 12 3 35 -1 52 -9 25 -14 29 -20 25 -47 -9 -53 -3 -57 80
-57 98 0 157 -18 198 -60 l33 -33 31 33 c18 19 30 43 30 60 0 37 22 52 111 80
91 27 122 22 237 -38 34 -18 42 -28 42 -51 0 -41 39 -94 75 -101 17 -4 39 -12
50 -18 11 -6 32 -13 47 -16 21 -5 30 -15 38 -45 10 -37 14 -40 61 -50 63 -14
123 -44 144 -73 8 -13 20 -24 25 -24 6 -1 15 -2 21 -3 5 0 7 -5 4 -11 -3 -5
-19 -8 -35 -6 -25 3 -29 0 -27 -18 1 -16 -4 -21 -23 -22 -34 -2 -80 -21 -80
-34 0 -5 -17 -26 -37 -45 -27 -25 -46 -35 -69 -35 -18 0 -36 -4 -39 -10 -3 -5
-21 -16 -38 -25 -38 -18 -138 -15 -161 4 -11 10 -20 10 -37 0 -21 -11 -127
-20 -209 -19 -19 1 -45 7 -57 15 -12 8 -38 15 -58 15 -30 0 -37 5 -46 28 -6
15 -9 27 -7 28 2 0 -4 9 -12 19 -8 9 -19 26 -25 38 -5 11 -23 28 -40 37 -27
15 -30 21 -27 57 4 42 -12 64 -48 70 -27 4 -33 -13 -15 -40 14 -22 13 -27 -25
-85 -22 -33 -40 -65 -40 -70 0 -13 -77 -35 -130 -38 -25 -1 -53 -5 -63 -9 -11
-4 -23 -3 -30 4 -6 6 -25 11 -43 11 -17 0 -37 6 -44 14 -11 14 -18 14 -57 -1
-27 -9 -45 -13 -79 -15 -22 -1 -31 -6 -30 -17 1 -11 -9 -17 -32 -19 -27 -3
-33 -7 -29 -21 4 -17 1 -17 -49 1 -35 13 -68 18 -92 14 -20 -3 -45 -5 -54 -6
-13 0 -15 -5 -9 -28 10 -33 -6 -52 -43 -52 -24 0 -25 -3 -23 -52 2 -51 1 -53
-23 -50 -28 3 -40 17 -40 48 0 29 -46 48 -94 39 -20 -4 -36 -11 -36 -16 0 -5
-12 -9 -26 -9 -15 0 -47 -7 -73 -15 -25 -8 -58 -17 -73 -20 -21 -4 -25 -9 -20
-27 3 -13 11 -27 19 -31 7 -4 13 -17 13 -27 0 -11 8 -24 18 -29 26 -14 22 -55
-6 -59 -12 -2 -22 -8 -22 -13 0 -5 -7 -9 -15 -9 -8 0 -15 -9 -15 -20 0 -15 7
-20 25 -20 36 0 79 -42 72 -70 -8 -30 1 -50 21 -44 9 2 4 -2 -13 -10 -16 -8
-38 -15 -47 -16 -10 0 -18 -6 -18 -13 0 -7 -16 -21 -35 -31 -34 -19 -46 -48
-25 -61 6 -3 10 -16 10 -28 0 -17 -6 -22 -31 -24 -17 -1 -38 -8 -45 -14 -8 -7
-40 -13 -72 -14 -32 -1 -72 -10 -89 -19 -36 -18 -93 -21 -93 -5 0 8 -26 9 -89
4 -71 -6 -94 -4 -119 9 -17 9 -39 16 -50 16 -32 0 -56 24 -45 46 17 31 5 45
-31 39 -27 -6 -34 -3 -44 19 -7 15 -21 26 -38 28 -18 2 -33 14 -48 40 l-21 37
60 58 c40 40 72 61 99 68 47 12 57 31 23 44 -47 18 -44 35 4 27 113 -18 134
-18 148 -2 7 9 19 16 27 16 36 0 60 105 31 140 -36 45 -79 69 -147 81 -39 7
-78 18 -87 24 -14 10 -14 14 1 44 9 17 14 36 11 41 -8 13 -42 13 -50 0 -23
-36 -385 -321 -538 -423 -217 -144 -572 -329 -767 -399 -30 -11 -68 -26 -85
-33 -94 -40 -305 -96 -585 -156 -180 -38 -499 -69 -705 -68 -104 0 -226 4
-270 8 -100 10 -406 56 -502 76 -138 29 -202 16 -203 -38 -1 -12 -7 -33 -14
-46 -11 -21 -11 -30 1 -59 18 -44 6 -59 -55 -67 -85 -11 -92 -14 -92 -39 0
-37 29 -53 107 -60 57 -6 77 -4 96 9 27 17 129 23 186 10 51 -11 134 -60 148
-87 7 -12 13 -37 13 -55 0 -20 8 -40 22 -53 23 -21 26 -22 68 -24 26 -1 28 -9
14 -53 -4 -15 -2 -23 5 -23 14 0 73 40 84 58 4 6 19 12 32 12 22 0 23 -3 22
-65 0 -36 -5 -65 -10 -65 -5 0 -5 -5 1 -13 10 -12 12 -67 2 -67 -3 0 -11 -9
-18 -20 -10 -16 -10 -20 0 -18 7 2 18 9 23 16 21 27 106 18 89 -9 -3 -5 -1
-25 5 -44 6 -24 6 -35 -1 -35 -6 0 -3 -11 6 -25 20 -30 20 -27 -3 -53 -21 -26
-43 -28 -79 -8 -15 8 -40 17 -56 21 -26 6 -28 8 -21 43 3 20 8 45 11 55 4 13
-1 17 -20 17 -14 0 -26 -4 -26 -10 0 -13 -43 -13 -55 -1 -6 5 -23 11 -39 13
-16 2 -34 12 -40 23 -16 30 -28 35 -50 23 -11 -6 -47 -14 -81 -18 -33 -4 -68
-10 -77 -14 -12 -5 -29 4 -60 32 -26 24 -56 42 -73 44 -28 3 -30 6 -27 39 4
43 -19 70 -83 98 -43 19 -195 35 -195 21 0 -5 -17 -14 -37 -19 -32 -9 -40 -8
-59 10 -19 18 -22 31 -22 97 0 73 10 108 28 97 13 -8 20 10 9 25 -7 13 -10 13
-18 1 -10 -16 -23 -1 -26 33 -4 36 -5 37 -15 31 -5 -3 -10 0 -10 9 0 8 -9 34
-19 59 -14 33 -32 52 -71 76 l-52 32 -46 -17 c-26 -9 -54 -19 -62 -22 -35 -12
-47 -14 -95 -16 -27 -2 -60 -8 -72 -14 -12 -7 -51 -12 -86 -12 -67 0 -78 6
-102 54 -9 18 -18 21 -65 18 -30 -2 -66 -11 -79 -19 -14 -9 -35 -13 -52 -9
-16 3 -29 2 -29 -3 0 -14 -50 -31 -92 -31 -55 0 -106 34 -110 74 -2 24 -13 35
-52 57 -58 31 -73 60 -78 150 0 15 -16 44 -34 65 -26 31 -35 37 -45 27 -7 -7
-22 -13 -34 -13 -12 0 -15 3 -9 8 16 10 28 52 15 52 -6 0 -11 -6 -11 -14 0
-17 -45 -27 -59 -13 -11 11 -53 -5 -81 -32 -12 -12 -12 -15 -1 -19 11 -4 11
-6 0 -13 -9 -5 -5 -10 14 -14 15 -4 27 -13 27 -21 0 -8 -6 -11 -15 -8 -8 4
-22 1 -30 -6 -8 -7 -24 -10 -35 -7 -11 3 -20 2 -20 -1 0 -4 -5 -14 -10 -22 -8
-13 -11 -12 -24 5 -13 18 -15 18 -21 3 -6 -15 -9 -15 -35 0 -15 9 -26 21 -23
28 2 7 -8 17 -24 22 -16 6 -21 11 -11 11 29 2 56 81 28 81 -5 0 -10 19 -10 43
0 24 -6 49 -12 55 -10 10 -10 17 -1 31 10 16 8 22 -8 36 -24 22 -12 40 43 62
46 18 48 36 7 53 l-31 13 34 32 c18 17 38 40 44 50 8 14 23 19 55 20 64 2 69
4 69 18 0 16 94 67 124 67 43 0 86 -22 101 -51 9 -16 27 -32 41 -35 14 -4 30
-17 34 -30 14 -35 50 -31 90 11 18 19 32 36 29 38 -2 2 -53 41 -114 87 -675
510 -1182 1218 -1442 2010 -227 695 -266 1432 -112 2130 96 437 208 735 419
1115 18 33 41 72 52 87 10 14 18 29 18 32 0 16 204 314 286 418 263 333 598
642 949 875 165 109 238 151 430 250 280 143 599 257 945 337 178 42 245 53
605 105 142 21 396 26 505 11z m6183 -4077 c13 -3 16 -10 11 -26 -11 -34 -7
-61 12 -72 9 -5 24 -18 33 -27 8 -10 23 -18 33 -18 9 0 35 -18 56 -39 37 -38
56 -47 111 -53 40 -5 49 -32 24 -75 -19 -33 -27 -38 -62 -41 -29 -2 -41 1 -41
10 -1 20 -52 66 -82 73 -20 5 -31 2 -45 -14 -9 -12 -28 -21 -40 -21 -32 0 -81
-29 -125 -73 -33 -34 -42 -38 -79 -35 -55 4 -70 26 -47 70 18 37 29 78 32 123
2 41 15 76 36 100 10 11 20 38 22 60 3 34 8 43 38 58 33 16 57 16 113 0z
m-466 -483 c10 -11 28 -20 41 -20 32 0 39 -27 12 -55 -19 -20 -21 -30 -15 -67
4 -24 23 -66 41 -94 58 -87 46 -95 -39 -28 -40 31 -64 59 -78 90 -18 42 -18
47 -3 77 14 26 15 37 5 64 -19 51 4 71 36 33z m-33 -356 c17 3 40 8 52 11 15
5 23 0 32 -19 10 -23 9 -28 -14 -42 -37 -25 -77 -109 -64 -134 14 -26 13 -30
-7 -30 -10 0 -42 -12 -71 -27 l-52 -26 -33 31 c-27 27 -40 32 -75 30 -23 -1
-45 2 -48 5 -15 14 8 37 47 47 25 7 54 25 75 48 31 34 32 37 14 44 -28 10 -25
26 4 21 18 -4 29 3 45 26 19 27 25 29 43 20 11 -6 35 -9 52 -5z m1408 -881 c9
-8 25 -12 36 -9 14 5 21 1 25 -14 4 -16 13 -20 45 -20 46 0 86 -28 76 -54 -4
-10 -1 -28 6 -42 10 -19 21 -24 50 -24 20 0 41 5 46 10 12 12 64 -9 64 -27 0
-6 6 -13 13 -16 9 -3 9 -9 0 -24 -9 -16 -9 -25 3 -42 14 -19 13 -21 -2 -21
-12 0 -15 -6 -10 -24 3 -14 1 -28 -4 -31 -6 -4 -8 -11 -5 -16 4 -5 -7 -23 -24
-39 -17 -18 -28 -37 -24 -45 3 -8 0 -15 -7 -15 -7 0 -31 -18 -52 -40 -22 -22
-44 -40 -49 -40 -5 0 -9 -9 -9 -20 0 -11 -8 -23 -17 -26 -35 -11 -123 -57
-123 -64 0 -3 -10 -12 -23 -19 -21 -11 -33 -51 -15 -51 4 0 8 5 8 10 0 6 9 10
20 10 17 0 20 -7 20 -42 0 -24 7 -49 16 -59 26 -29 6 -73 -34 -77 -26 -3 -33
-9 -40 -35 -7 -25 -19 -37 -60 -57 -46 -22 -52 -28 -52 -56 0 -17 3 -34 7 -38
14 -13 13 -48 -2 -62 -8 -9 -15 -22 -15 -30 0 -17 -61 -19 -91 -4 -10 6 -19 7
-19 2 0 -4 -10 -8 -22 -8 -64 1 -108 -14 -123 -44 -8 -16 -15 -38 -15 -50 0
-17 -4 -19 -27 -14 -35 8 -294 5 -307 -4 -5 -3 -26 -7 -45 -8 -20 -2 -60 -7
-89 -12 -74 -12 -286 5 -338 28 -51 22 -99 104 -89 151 6 25 3 30 -27 42 -18
8 -49 17 -69 21 -47 8 -77 42 -95 107 -9 30 -18 61 -20 70 -4 11 4 20 26 29
17 7 47 26 67 41 32 26 43 29 107 29 39 -1 89 -8 111 -16 22 -9 63 -19 91 -24
28 -4 65 -15 82 -24 54 -28 132 -14 132 24 0 4 13 13 30 18 26 10 29 14 21 34
-6 15 -5 31 2 43 8 15 6 22 -12 33 -20 14 -21 16 -5 33 9 11 25 42 34 69 l17
51 -29 20 c-30 22 -29 39 2 39 11 0 27 11 36 25 15 23 22 25 101 25 69 0 92 4
119 21 37 22 42 40 19 59 -51 42 15 73 190 89 l70 6 3 37 c2 28 13 45 44 73
37 34 40 40 35 75 -7 54 12 78 66 82 64 6 130 -3 149 -19z m-3329 -1612 c19
-17 22 -38 8 -60 -7 -12 -14 -10 -36 8 -15 11 -37 21 -48 21 -26 0 -67 -38
-67 -62 0 -10 -4 -19 -10 -19 -5 -1 -14 -2 -19 -3 -19 -2 -23 -16 -5 -17 11 0
13 -3 6 -6 -9 -4 -8 -12 5 -36 10 -18 24 -36 31 -40 6 -4 12 -20 12 -35 -1
-35 -24 -67 -42 -56 -10 7 -101 13 -200 15 -9 0 -22 7 -29 15 -10 12 -8 16 10
21 25 6 26 48 1 48 -9 0 -15 12 -17 32 -2 29 6 39 40 48 4 2 8 4 10 5 1 1 19
4 40 6 47 4 87 28 87 52 0 21 42 39 114 48 27 4 50 13 52 20 15 50 15 50 27
30 7 -10 20 -26 30 -35z m-7167 -690 c6 -12 29 -38 51 -59 35 -32 63 -70 63
-85 0 -2 -11 -2 -25 1 -14 2 -25 8 -25 13 0 19 -27 8 -38 -16 -6 -14 -20 -25
-30 -25 -20 0 -46 -24 -54 -50 -3 -9 -31 -18 -88 -26 -84 -12 -104 -24 -105
-64 0 -12 -12 -14 -55 -12 -107 6 -158 55 -110 107 33 35 24 67 -24 80 -48 14
-55 29 -23 50 21 13 37 14 103 6 43 -5 81 -8 85 -5 4 2 5 22 2 44 -5 36 -3 40
23 50 16 6 51 14 78 17 27 2 58 8 69 12 28 10 90 -13 103 -38z m6798 -37 c9
-8 21 -24 26 -35 7 -13 21 -19 45 -19 19 0 50 -9 69 -21 19 -11 40 -18 45 -15
6 4 15 -3 22 -15 9 -18 17 -21 54 -16 l43 6 -30 -30 c-27 -26 -34 -28 -62 -20
-81 24 -136 31 -252 31 l-127 0 -43 47 c-24 26 -43 48 -41 49 1 1 25 5 52 8
28 3 75 14 105 25 68 24 75 25 94 5z m-8127 -56 c17 -8 20 -14 12 -24 -6 -7
-9 -23 -7 -36 3 -21 8 -23 64 -23 41 -1 70 -7 88 -19 25 -16 27 -22 25 -69 -2
-32 2 -62 11 -77 8 -14 13 -35 11 -47 -1 -11 3 -24 8 -28 6 -3 11 -10 11 -14
0 -13 -81 -38 -130 -39 -40 -2 -48 2 -70 32 -14 19 -36 38 -50 41 -14 4 -27
10 -30 14 -9 11 -59 41 -70 41 -6 0 -25 10 -42 23 -22 16 -32 18 -35 10 -5
-15 -83 -18 -83 -3 0 6 -6 10 -13 10 -7 0 -26 14 -42 30 -16 17 -35 30 -42 30
-17 0 -17 10 2 24 8 6 16 22 17 36 4 32 48 76 60 58 4 -8 8 -8 8 -2 0 6 6 11
13 12 27 1 123 21 144 29 29 11 111 5 140 -9z m4311 -140 c7 -7 12 -20 12 -31
0 -22 55 -47 104 -47 45 0 65 -29 37 -54 -19 -17 -26 -66 -10 -66 5 0 9 -11 9
-25 0 -28 -21 -41 -47 -30 -10 5 -36 10 -58 11 -88 8 -132 54 -118 124 5 28 1
35 -31 61 -20 17 -36 39 -36 50 0 17 7 19 63 19 36 0 68 -5 75 -12z m3624 -99
c34 -24 28 -39 -14 -39 -18 0 -45 -11 -65 -26 -18 -14 -49 -32 -68 -40 -33
-13 -35 -13 -46 9 -7 12 -19 27 -28 34 -12 9 -13 17 -6 40 10 26 16 28 73 34
34 3 65 9 69 13 11 10 53 -2 85 -25z m-1233 -38 c16 -10 22 -66 11 -96 -5 -12
-23 -28 -42 -34 -82 -31 -80 -28 -27 -78 27 -25 49 -52 49 -60 0 -10 6 -13 16
-9 8 3 12 2 9 -4 -3 -6 -20 -10 -36 -10 -30 0 -31 -1 -27 -46 4 -62 -14 -75
-71 -50 -29 13 -55 17 -95 14 l-55 -5 -6 50 c-4 29 -3 53 3 59 13 13 32 2 32
-18 0 -16 37 -18 114 -8 54 8 58 17 16 39 -34 18 -37 27 -14 50 12 12 13 19 5
29 -9 11 -5 20 19 42 27 26 31 35 29 79 -1 28 -1 53 0 58 1 10 53 9 70 -2z
m791 -51 c0 -15 81 -40 130 -40 54 0 61 -10 34 -48 -11 -17 -25 -22 -56 -22
-32 0 -50 -8 -82 -33 -23 -19 -60 -44 -82 -57 -39 -22 -44 -23 -95 -11 -61 15
-121 12 -126 -6 -2 -6 5 -21 16 -32 l21 -21 -25 -16 c-32 -21 -31 -28 3 -41
l27 -10 -32 -12 c-17 -7 -34 -19 -37 -27 -3 -8 -10 -14 -16 -14 -15 0 -12 30
3 31 6 1 -24 7 -68 14 -71 12 -82 12 -108 -3 -28 -16 -29 -16 -48 7 -25 30
-24 46 3 104 23 48 48 63 48 28 0 -33 52 -38 64 -5 3 9 -6 20 -27 29 -90 44
-102 56 -70 74 15 8 16 12 4 34 -7 13 -11 35 -9 48 3 23 6 24 58 20 30 -1 61
-8 68 -13 8 -7 25 -7 55 0 82 21 98 22 118 11 16 -8 38 -7 93 5 114 25 136 26
136 6z"/>
<path d="M7286 9129 c5 -9 2 -10 -11 -5 -13 5 -31 -3 -58 -26 -30 -23 -56 -34
-96 -39 -31 -5 -57 -13 -59 -19 -2 -5 -7 -8 -12 -5 -4 2 -15 -4 -25 -15 -10
-11 -24 -20 -32 -20 -7 0 -13 -6 -13 -13 0 -18 -42 -57 -61 -57 -8 0 -20 -5
-27 -12 -9 -9 -12 -9 -12 0 0 9 -5 10 -19 2 -11 -5 -27 -7 -35 -4 -19 7 -76
-14 -76 -28 0 -5 -9 -6 -20 -3 -24 8 -25 2 -4 -31 22 -32 12 -42 -15 -15 -16
16 -20 28 -15 48 6 24 1 21 -47 -26 -29 -29 -66 -59 -81 -67 -16 -8 -28 -21
-28 -29 0 -8 -7 -15 -15 -15 -8 0 -15 -8 -15 -19 0 -25 -35 -68 -72 -87 -46
-24 -71 -50 -62 -65 5 -9 2 -11 -9 -6 -12 4 -22 -7 -41 -46 -14 -28 -26 -57
-26 -64 0 -7 -12 -19 -27 -26 -49 -21 -93 -68 -103 -111 -19 -75 -28 -88 -58
-86 -49 4 -57 1 -44 -12 26 -26 13 -66 -34 -113 -25 -25 -50 -45 -54 -45 -10
0 -31 -60 -25 -71 3 -4 0 -11 -7 -16 -17 -11 -38 -49 -38 -69 0 -15 2 -15 21
2 12 10 40 44 62 74 53 72 77 89 77 54 0 -46 -130 -244 -161 -244 -3 0 -9 -9
-12 -20 -3 -11 -1 -18 3 -15 5 3 11 1 15 -5 3 -5 2 -10 -2 -10 -10 0 -25 -34
-63 -142 -15 -42 -34 -84 -44 -93 -13 -13 -14 -20 -5 -31 8 -10 8 -22 0 -46
-9 -29 -14 -108 -11 -170 2 -24 20 -23 20 1 0 10 7 22 16 25 11 4 14 1 9 -12
-3 -12 4 -29 19 -45 24 -26 26 -26 36 -8 5 11 10 33 10 50 0 17 4 31 8 31 4 0
13 14 19 31 16 42 33 28 33 -26 0 -25 5 -65 12 -90 9 -35 17 -45 33 -45 19 0
59 20 41 20 -6 0 -3 6 6 13 9 6 18 21 21 32 4 18 5 18 6 -2 0 -13 6 -23 12
-23 6 0 9 9 6 20 -3 13 0 20 9 21 27 3 32 4 39 10 3 4 21 3 40 -1 25 -6 35 -4
39 6 3 8 12 14 21 14 9 0 15 9 15 25 0 23 13 31 43 26 12 -2 8 17 -5 22 -10 4
-9 6 1 6 11 1 11 4 1 16 -7 8 -18 15 -25 15 -7 0 -23 9 -36 20 l-24 19 32 1
c21 0 38 8 51 24 10 14 32 28 48 32 35 9 94 62 94 87 0 10 8 20 18 24 35 12
41 23 31 56 -5 18 -19 39 -30 48 -17 13 -20 22 -14 47 8 40 30 43 22 3 -4 -16
-1 -36 7 -46 12 -17 15 -16 44 12 18 17 32 35 32 41 0 15 38 26 79 23 l34 -3
-6 38 c-4 22 -16 45 -28 55 -21 16 -21 17 -3 27 14 8 21 6 30 -6 14 -19 49 -8
40 13 -3 8 -1 17 5 21 14 8 39 -15 39 -36 0 -18 19 -30 48 -30 14 1 12 5 -7
21 l-24 19 23 20 c28 24 34 25 50 5 7 -8 18 -15 26 -15 10 0 9 7 -4 29 -14 25
-21 28 -49 24 -26 -4 -33 -2 -33 11 0 9 8 16 20 16 26 0 26 17 0 25 -11 3 -25
15 -30 26 -14 25 -51 24 -80 -1 -13 -11 -31 -20 -42 -20 -23 0 -23 -9 0 -26
16 -13 16 -14 -2 -7 -13 4 -17 3 -12 -5 9 -15 1 -15 -25 -1 -14 7 -17 14 -11
22 6 7 12 23 14 37 2 18 12 27 38 34 19 5 39 16 43 23 4 7 15 13 23 13 8 0 24
15 35 34 13 22 30 36 48 39 23 5 31 13 36 37 5 24 10 28 20 20 7 -6 13 -22 13
-36 0 -38 11 -43 72 -36 l55 7 -2 55 c-3 58 9 85 41 91 11 2 24 19 31 39 8 23
18 34 28 32 11 -2 17 7 19 30 2 19 8 32 15 31 6 -2 15 7 18 20 11 39 38 97 45
97 4 0 10 13 13 29 4 17 14 30 26 34 12 3 26 23 37 55 12 32 27 55 41 61 13 6
28 22 33 35 11 30 -1 80 -21 84 -19 3 -89 -26 -89 -37 0 -5 -11 -12 -25 -15
-14 -4 -35 -18 -47 -32 -16 -18 -29 -23 -49 -20 -17 2 -30 -1 -32 -9 -5 -11
-92 -45 -117 -45 -16 0 -2 41 21 63 11 10 19 22 19 28 0 17 79 96 146 145 35
26 64 51 64 56 0 4 9 8 19 8 11 0 22 8 26 19 3 10 24 31 46 46 43 30 46 48 10
53 -17 3 -21 0 -15 -9z"/>
<path d="M8736 9025 c-11 -8 -27 -13 -36 -10 -17 5 -60 -44 -71 -80 -3 -13
-12 -19 -26 -17 -11 1 -26 -4 -33 -13 -8 -9 -29 -15 -56 -15 -32 0 -44 -4 -44
-15 0 -8 -14 -22 -32 -31 -49 -25 -59 -39 -52 -73 4 -20 1 -37 -7 -47 -12 -15
-11 -18 4 -28 10 -6 35 -26 55 -43 20 -18 39 -28 41 -22 3 11 24 -24 33 -57 3
-14 -1 -25 -13 -33 -11 -6 -19 -18 -19 -26 0 -24 39 -18 51 8 10 22 70 67 89
67 6 0 22 7 35 16 21 14 30 14 55 4 34 -14 39 -30 10 -30 -14 0 -20 -6 -18
-16 2 -10 -9 -23 -29 -33 -18 -9 -33 -20 -33 -25 0 -6 -11 -21 -24 -35 -36
-38 -70 -129 -55 -147 6 -8 17 -14 25 -14 7 0 16 -5 19 -11 10 -15 -16 -100
-32 -106 -7 -3 -13 -12 -13 -20 0 -11 5 -13 18 -8 9 4 27 10 40 12 12 3 22 9
22 14 0 5 6 9 14 9 8 0 28 13 45 30 18 16 48 39 67 50 18 12 34 28 34 36 0 7
11 16 25 20 21 5 24 11 19 28 -13 42 -42 47 -78 11 -21 -21 -34 -25 -78 -24
-29 1 -43 4 -30 6 12 2 22 11 22 18 0 8 14 22 30 32 17 10 28 23 26 29 -3 7 4
20 14 29 11 10 18 21 15 24 -2 4 7 15 21 25 26 20 34 59 10 50 -7 -3 -16 2
-19 10 -7 16 27 46 51 46 9 0 12 7 9 18 -19 59 -19 59 2 65 14 3 21 15 23 42
3 34 7 38 48 52 25 9 48 20 51 25 4 6 11 8 17 4 5 -3 15 7 20 23 9 26 8 28
-10 23 -14 -3 -19 -1 -14 6 4 7 -3 17 -18 24 -14 6 -26 18 -26 26 0 8 -11 27
-25 44 -14 16 -25 38 -25 49 0 22 -38 27 -58 7 -10 -10 -17 -10 -32 0 -25 15
-30 15 -54 -3z"/>
<path d="M7611 8578 c-20 -41 -27 -66 -21 -72 16 -16 12 -26 -10 -26 -22 0
-25 -7 -11 -29 8 -12 12 -12 25 2 9 8 16 22 16 30 0 32 27 40 67 20 32 -15 39
-24 44 -58 4 -26 2 -47 -7 -60 -7 -11 -14 -40 -15 -65 -1 -25 -6 -56 -11 -69
-12 -33 8 -44 44 -25 25 13 29 13 34 -1 5 -12 10 -13 20 -4 10 8 11 16 4 30
-7 12 -6 32 2 62 10 38 9 50 -5 80 -19 39 -21 63 -8 72 6 3 6 17 1 34 -4 16
-6 31 -4 34 13 13 -31 63 -73 84 -26 12 -51 23 -55 23 -3 0 -20 -28 -37 -62z"/>
<path d="M8860 8034 c-14 -16 -76 -19 -85 -4 -4 6 -11 8 -16 4 -6 -3 -3 -12 8
-20 15 -11 16 -13 2 -14 -9 0 -24 -9 -34 -20 -10 -11 -25 -20 -32 -20 -8 0
-26 -9 -40 -20 -14 -11 -33 -20 -43 -20 -9 0 -35 -14 -56 -31 l-39 -32 35 6
c21 4 45 1 59 -7 21 -12 28 -12 47 0 18 13 23 12 34 -1 13 -15 50 -21 50 -7 0
4 21 8 48 9 151 4 141 1 162 44 23 43 27 109 8 109 -7 0 -24 6 -38 13 -46 24
-58 26 -70 11z"/>
<path d="M10810 7767 c0 -7 7 -22 15 -35 12 -16 13 -27 5 -41 -5 -11 -10 -36
-10 -55 0 -35 0 -36 40 -33 22 1 38 7 36 12 -1 6 -10 9 -19 7 -21 -3 -30 13
-22 39 5 16 13 20 31 16 14 -2 24 1 24 7 0 6 5 4 10 -4 9 -13 12 -12 25 4 17
22 20 56 6 56 -5 0 -7 9 -4 20 4 17 0 20 -25 20 -22 0 -32 -6 -37 -20 -3 -11
-11 -20 -16 -20 -5 0 -9 9 -9 20 0 15 -7 20 -25 20 -14 0 -25 -6 -25 -13z"/>
<path d="M11638 7603 c-10 -2 -18 -11 -18 -18 0 -7 -12 -23 -26 -34 -16 -13
-21 -21 -12 -21 18 0 18 -41 0 -63 -8 -9 -10 -25 -6 -41 8 -33 24 -34 24 -2 0
35 10 56 27 56 16 0 52 -38 53 -56 0 -6 23 -32 52 -58 56 -50 91 -58 108 -26
8 15 21 20 50 20 39 0 40 1 40 33 0 21 -8 41 -19 51 -11 10 -21 28 -23 40 -2
14 -19 29 -51 44 -26 13 -50 29 -53 37 -4 9 -15 12 -33 9 -19 -4 -32 0 -45 15
-19 21 -33 23 -68 14z"/>
<path d="M6083 6904 c-10 -43 -9 -46 12 -56 33 -15 49 -78 20 -78 -9 0 -15 -9
-15 -25 0 -31 16 -32 70 -4 33 17 40 26 40 50 0 19 -5 29 -15 29 -19 0 -19 5
1 35 25 38 15 65 -31 81 -63 22 -70 19 -82 -32z"/>
<path d="M12006 6391 c-3 -5 -5 -15 -3 -23 2 -7 2 -10 0 -6 -5 8 -35 -2 -44
-14 -3 -5 -6 -26 -7 -47 -2 -33 4 -43 43 -79 29 -26 45 -49 45 -64 0 -13 11
-39 25 -58 14 -19 25 -29 25 -22 0 7 7 12 15 12 8 0 15 7 15 15 0 9 7 18 15
21 8 4 15 13 15 21 0 11 -3 13 -13 5 -17 -14 -68 40 -56 59 11 18 0 87 -19
124 -8 17 -18 36 -22 44 -8 19 -26 25 -34 12z"/>
<path d="M10690 6305 c-17 -19 -23 -37 -24 -75 -1 -49 -2 -51 -54 -82 -44 -28
-52 -37 -52 -63 1 -46 21 -65 68 -65 22 0 44 5 47 10 3 6 9 10 13 10 14 0 69
-96 76 -131 3 -19 16 -46 29 -59 12 -14 30 -41 39 -62 28 -62 109 -81 94 -23
-5 19 1 32 24 56 16 18 30 36 30 40 0 4 11 25 25 45 14 20 25 45 25 55 0 11
10 29 22 41 30 30 34 86 8 110 -19 18 -16 40 13 106 9 19 7 25 -12 38 -12 9
-20 22 -17 30 3 8 1 14 -4 14 -5 0 -7 8 -4 18 4 11 -2 7 -17 -10 -24 -27 -156
-98 -183 -98 -23 0 -39 27 -28 47 7 12 6 26 -4 45 -20 38 -79 40 -114 3z"/>
<path d="M11860 6203 c0 -25 -23 -83 -33 -83 -8 0 -4 -36 10 -83 3 -14 0 -17
-14 -15 -12 2 -17 -2 -14 -12 2 -8 6 -35 8 -60 6 -44 18 -70 33 -70 11 0 30
57 30 87 0 24 4 27 52 37 28 6 28 6 24 83 -3 73 -5 78 -37 105 -38 32 -59 36
-59 11z"/>
<path d="M12924 6074 c-8 -20 -13 -39 -10 -42 3 -3 1 -11 -5 -18 -7 -9 -6 -18
3 -33 14 -22 4 -41 -13 -24 -17 17 -39 4 -39 -22 0 -32 17 -41 40 -20 17 15
19 15 25 -6 6 -18 2 -27 -14 -37 -24 -17 -28 -32 -6 -32 10 0 15 -10 15 -26 0
-38 36 -66 80 -62 28 2 36 8 38 26 2 12 -1 22 -7 22 -6 0 -11 -8 -12 -17 0
-15 -2 -15 -9 2 -12 28 -12 32 5 49 18 18 4 66 -20 66 -8 0 -15 5 -15 10 0 6
6 10 13 10 10 0 11 12 7 48 -4 37 -9 47 -23 46 -9 -1 -17 2 -17 7 0 5 7 9 15
9 23 0 20 57 -4 70 -28 15 -31 14 -47 -26z"/>
<path d="M12745 5873 c-28 -134 -33 -143 -76 -143 -22 0 -30 -6 -35 -25 -4
-17 -1 -32 9 -43 9 -9 19 -29 22 -45 4 -15 11 -30 16 -33 5 -2 13 -23 19 -45
12 -44 40 -51 50 -12 3 12 15 33 27 47 13 14 18 26 13 26 -15 0 -12 38 5 64 8
12 16 48 16 79 2 53 3 57 25 57 28 0 33 26 7 33 -11 3 -7 5 10 6 15 0 27 5 27
11 0 13 -45 24 -71 17 -13 -4 -24 1 -32 14 -16 26 -26 24 -32 -8z"/>
<path d="M11280 5759 c0 -22 -22 -49 -40 -49 -6 0 -15 -12 -21 -27 -8 -22 -7
-30 7 -40 10 -7 26 -13 35 -13 10 0 24 -8 31 -19 7 -10 22 -20 32 -22 24 -5
29 -54 9 -88 -10 -16 -12 -26 -5 -33 13 -13 62 -2 62 15 0 7 9 30 21 51 27 51
19 100 -18 118 -18 9 -29 24 -34 45 -3 18 -14 44 -23 58 -20 31 -56 34 -56 4z"/>
<path d="M11680 5661 c0 -12 -6 -21 -14 -21 -8 0 -16 -7 -20 -15 -6 -18 -37
-20 -53 -4 -7 7 -24 8 -42 4 -32 -7 -53 -25 -28 -25 7 0 23 -18 36 -40 20 -36
26 -40 61 -40 l38 0 -13 -28 c-9 -16 -29 -33 -50 -41 -24 -8 -35 -19 -35 -32
0 -12 -7 -19 -19 -19 -10 0 -24 -7 -31 -15 -16 -19 -93 -30 -129 -17 -25 9
-34 7 -56 -10 -22 -17 -28 -18 -42 -6 -12 9 -15 9 -9 1 4 -7 4 -19 -1 -25 -4
-7 -8 -19 -8 -25 0 -20 -20 -15 -20 5 0 9 -4 23 -8 30 -5 8 -4 19 4 28 23 28
-5 37 -30 10 -19 -20 -22 -32 -17 -60 4 -21 14 -36 24 -39 16 -4 16 -5 0 -6
-22 -1 -24 -37 -3 -44 8 -4 27 0 42 8 22 12 28 22 28 47 0 44 27 49 42 8 8
-22 18 -30 36 -30 13 0 31 -9 38 -19 17 -24 61 -39 57 -19 -2 10 11 13 55 11
31 -1 57 3 57 8 0 5 7 9 15 9 8 0 15 4 15 9 0 5 13 14 29 19 16 6 32 20 36 31
3 12 10 19 15 16 12 -8 56 35 65 64 6 19 9 21 17 10 8 -11 8 -10 4 4 -3 10 -6
27 -6 38 0 10 -6 19 -14 19 -30 0 -41 32 -41 123 0 63 -4 91 -12 94 -8 3 -13
-4 -13 -16z"/>
</g>
</svg>
